<svg width="66" height="66" viewBox="0 0 66 66" fill="none" xmlns="http://www.w3.org/2000/svg">
<g clip-path="url(#clip0_77_22529)">
<path fill-rule="evenodd" clip-rule="evenodd" d="M52.9795 49.0544C52.5178 47.3532 51.7849 46.2355 50.7462 45.6446C49.2391 44.7762 47.3254 45.1963 45.4862 45.7727C41.4884 47.0325 39.4928 47.4099 38.9161 47.5027C38.6988 46.15 37.0905 46.1714 35.0607 46.2141C33.2214 46.2568 30.6965 46.3139 28.0225 45.5164C20.2711 43.2099 17.5156 47.4098 16.8708 48.6844H14.692V47.4103C14.692 47.1184 14.4614 46.8766 14.183 46.8766C13.9046 46.8766 13.6733 47.1114 13.6733 47.4103C13.6733 47.4103 13.6733 62.5258 13.6733 62.4662C13.6733 62.7776 13.9113 63 14.1897 63C14.4681 63 14.6986 62.7582 14.6986 62.4662V59.6686C15.4112 59.6756 16.4769 59.7754 17.6852 59.8821L17.7107 59.8844C19.7488 60.0692 22.2365 60.2948 24.7373 60.2948C27.9884 60.2948 31.2666 59.9174 33.5879 58.5792C46.4994 51.1481 52.4406 49.7661 52.5901 49.7313L52.5926 49.7307C52.7285 49.7024 52.8506 49.6096 52.9249 49.4814C52.9997 49.3533 53.0201 49.2039 52.9794 49.0614L52.9795 49.0544ZM17.7894 58.8225C22.0881 59.207 29.2567 59.8483 33.0985 57.6386L33.0848 57.6546C44.1758 51.2694 50.081 49.326 51.8253 48.8349C51.4522 47.7171 50.9295 46.9837 50.2439 46.5924C49.0632 45.9092 47.3933 46.2935 45.7713 46.8059C40.8573 48.3507 38.9228 48.593 38.8414 48.5999C38.6989 49.1337 38.4276 49.6392 37.9929 50.0806C36.5949 51.5042 33.8119 52.2515 30.0452 52.2515C29.3393 52.2515 28.6058 52.2301 27.8322 52.173C27.5538 52.1517 27.3365 51.8955 27.3569 51.6035C27.3772 51.3115 27.6215 51.0836 27.8999 51.105C32.4408 51.4178 35.8614 50.7634 37.287 49.3109C37.7349 48.8481 37.9588 48.3357 37.9385 47.7731C37.9181 47.282 37.0565 47.2462 35.0812 47.289L34.988 47.2907C33.0894 47.3265 30.5151 47.3751 27.7442 46.5486C19.6789 44.1459 17.7587 49.182 17.672 49.4093L17.6716 49.4103C17.5968 49.6163 17.4065 49.7588 17.1963 49.7588H14.6917V58.5999C15.4312 58.6069 16.4832 58.7067 17.7663 58.8204L17.7894 58.8225Z" fill="#282625"/>
<path fill-rule="evenodd" clip-rule="evenodd" d="M31.1948 2.53379V8.32105C31.1948 8.61302 31.4253 8.85483 31.7037 8.85483C31.9821 8.85483 32.2127 8.61302 32.2127 8.32105V2.53379C32.2127 2.24181 31.9821 2 31.7037 2C31.4253 2 31.1948 2.24181 31.1948 2.53379ZM50.8984 21.4688H45.3804C45.102 21.4688 44.8714 21.7106 44.8714 22.0025C44.8714 22.2945 45.102 22.5363 45.3804 22.5363H50.8984C51.1768 22.5363 51.4074 22.2945 51.4074 22.0025C51.4074 21.7106 51.1768 21.4688 50.8984 21.4688ZM43.2896 15.041C43.0519 15.183 42.9639 15.5107 43.1064 15.7669V15.7595C43.2015 15.9377 43.371 16.0301 43.5476 16.0301C43.6291 16.0301 43.7171 16.0087 43.7985 15.9591L48.5771 13.0692C48.8148 12.9272 48.9028 12.5995 48.7603 12.3433C48.6249 12.094 48.3124 12.0016 48.0681 12.1511L43.2896 15.041ZM40.8527 4.96795L38.0973 9.97967V9.98712C37.9548 10.2359 38.0362 10.5636 38.2805 10.7131C38.3548 10.7627 38.4434 10.7841 38.5314 10.7841C38.708 10.7841 38.8775 10.6843 38.9727 10.5135L41.7281 5.50174C41.8706 5.25297 41.7892 4.92525 41.5449 4.77579C41.3006 4.62633 40.9952 4.71174 40.8527 4.96795ZM36.5093 41.4652C36.7877 41.4652 37.0183 41.2234 37.0183 40.9314C37.0183 40.6394 36.7877 40.3976 36.5093 40.3976H26.8983C26.6199 40.3976 26.3893 40.6394 26.3893 40.9314C26.3893 41.2234 26.6199 41.4652 26.8983 41.4652H36.5093ZM36.5093 43.7717C36.7877 43.7717 37.0183 43.5299 37.0183 43.2379C37.0183 42.9459 36.7877 42.7041 36.5093 42.7041H26.8983C26.6199 42.7041 26.3893 42.9459 26.3893 43.2379C26.3893 43.5299 26.6199 43.7717 26.8983 43.7717H36.5093ZM24.0141 30.762L24.0205 30.7735H24.0082C24.7411 32.0764 25.4267 33.3079 25.7321 34.5607C26.2861 36.8442 26.2377 38.8382 26.2345 38.9675C26.2344 38.9713 26.2344 38.9734 26.2344 38.974C26.2206 39.266 26.4446 39.5148 26.723 39.5292C26.9739 39.5436 27.2386 39.3087 27.2523 39.0168C27.2594 38.9238 27.3337 36.8026 26.723 34.297C26.3835 32.8947 25.6573 31.5992 24.8903 30.2322C23.6209 27.9754 22.1888 25.4126 22.1888 21.7183C22.1888 17.07 25.8196 12.0514 31.6908 12.0514C37.5616 12.0514 41.1929 17.0701 41.1929 21.7183C41.1929 25.4057 39.7608 27.9684 38.4914 30.2322L38.4563 30.2951C37.7024 31.6456 36.993 32.9162 36.6587 34.297C36.0795 36.6737 36.1228 38.7042 36.1289 38.9864C36.1292 39.0018 36.1294 39.012 36.1294 39.0168C36.1427 39.3013 36.3671 39.5292 36.6384 39.5292H36.6587C36.9437 39.5153 37.161 39.266 37.1473 38.974C37.1473 38.9734 37.1473 38.9713 37.1472 38.9675C37.144 38.8379 37.0955 36.8375 37.6496 34.5607C37.9551 33.3079 38.6406 32.0759 39.3735 30.7735C40.7105 28.396 42.2175 25.6983 42.2175 21.7189C42.2175 16.5578 38.1928 10.984 31.697 10.984C25.2012 10.984 21.1764 16.5577 21.1764 21.7189C21.1764 25.6913 22.6852 28.3873 24.0141 30.762ZM12.509 21.4696C12.2306 21.4696 12 21.7114 12 22.0034C12 22.2954 12.2306 22.5372 12.509 22.5372H18.027C18.3054 22.5372 18.536 22.2954 18.536 22.0034C18.536 21.7114 18.3054 21.4696 18.027 21.4696H12.509ZM15.3326 12.1514C15.0883 12.0019 14.7829 12.0873 14.6404 12.3435V12.351C14.4979 12.5998 14.5793 12.9275 14.8236 13.0769L19.6022 15.9668C19.6766 16.0165 19.7651 16.0378 19.8531 16.0378C20.0297 16.0378 20.1992 15.938 20.2944 15.7672C20.4369 15.5184 20.3555 15.1907 20.1112 15.0413L15.3326 12.1514ZM21.8487 4.77665C21.6111 4.91866 21.523 5.24639 21.6655 5.50261V5.49516L24.4209 10.5069C24.5161 10.6851 24.6856 10.7775 24.8622 10.7775C24.9436 10.7775 25.0317 10.7561 25.1131 10.7065C25.3508 10.5645 25.4388 10.2367 25.2963 9.98053L22.5409 4.96882C22.4055 4.71955 22.093 4.62719 21.8487 4.77665Z" fill="#282625"/>
</g>
<defs>
<clipPath id="clip0_77_22529">
<rect width="65" height="65" fill="white" transform="translate(0.25 0.09375)"/>
</clipPath>
</defs>
</svg>
