<svg width="66" height="66" viewBox="0 0 66 66" fill="none" xmlns="http://www.w3.org/2000/svg">
<g clip-path="url(#clip0_77_22515)">
<path d="M49.482 0.5H17.518C15.5777 0.5 14 2.01491 14 3.878V61.122C14 62.9851 15.5777 64.5 17.518 64.5H49.482C51.4223 64.5 53 62.9851 53 61.122V3.878C53 2.01491 51.4223 0.5 49.482 0.5ZM51.8887 61.1217C51.8887 62.3945 50.8075 63.4327 49.482 63.4327L17.518 63.4332C16.1925 63.4332 15.1113 62.395 15.1113 61.1222V3.87825C15.1113 2.60549 16.1925 1.56728 17.518 1.56728H49.482C50.8075 1.56728 51.8887 2.60547 51.8887 3.87825V61.1217ZM48.9416 3.79267H18.0594C17.7557 3.79267 17.5041 4.03423 17.5041 4.3259V56.4575C17.5041 56.7492 17.7557 56.9908 18.0594 56.9908H48.9482C49.252 56.9908 49.5036 56.7492 49.5036 56.4575L49.5041 4.3259C49.4969 4.03423 49.2525 3.79267 48.9415 3.79267H48.9416ZM48.3858 4.85913V34.9605C46.075 34.214 40.4391 33.3816 38.751 33.1331V30.0467C40.0693 28.6033 41.0688 26.7259 41.6021 24.8345C42.239 24.6068 43.1942 23.9173 43.1942 22.1465C43.1942 21.8905 43.157 21.6415 43.1126 21.4C43.1126 21.3856 43.1198 21.3786 43.1275 21.3717C43.3275 20.5751 45.0234 13.4854 43.0903 11.1103C41.335 8.95553 34.2773 8.92036 33.5071 8.91286C32.6997 8.91981 25.672 8.95552 23.9239 11.1103C21.9836 13.4853 23.6868 20.568 23.8867 21.3717C23.8867 21.3861 23.8939 21.393 23.9017 21.4C23.85 21.6415 23.82 21.8905 23.82 22.1465C23.82 23.9242 24.7752 24.6143 25.4122 24.8345C25.9453 26.7259 26.9376 28.6033 28.2633 30.0467V33.1331C26.6045 33.3677 21.1534 34.1782 18.6284 34.9748L18.6295 4.85951L48.3858 4.85913ZM41.5947 46.0182C42.5204 46.0182 43.2684 46.7364 43.2684 47.6184C43.2684 48.5003 42.5204 49.2186 41.5947 49.2186C40.669 49.2186 39.9209 48.5004 39.9209 47.6184C39.9209 46.7365 40.6767 46.0182 41.5947 46.0182ZM24.7914 11.7645C25.9837 10.2997 31.412 9.97972 33.4562 9.97972H33.5006C35.537 9.97972 41.0026 10.2853 42.2097 11.7645C43.3426 13.1514 42.8317 17.2828 42.328 19.8071C42.2242 19.7004 42.1059 19.6082 41.9876 19.5298V19.2738C41.9948 17.1761 41.9948 15.9033 41.158 15.0998C40.1361 14.1186 38.1959 14.076 33.5006 14.076C28.7536 14.076 26.7834 14.1117 25.7838 15.0784C24.9841 15.8537 24.9913 17.0337 25.0063 18.9897V19.5303C24.888 19.6013 24.777 19.694 24.6659 19.8076C24.1767 17.2828 23.658 13.1584 24.7914 11.7645V11.7645ZM25.6655 20.3904C25.6877 20.3835 25.7099 20.376 25.7321 20.3691C25.7616 20.3622 25.7915 20.3478 25.821 20.3334C25.8582 20.3121 25.8949 20.2907 25.9321 20.2625C25.947 20.2481 25.9693 20.2342 25.9837 20.2129C26.0132 20.1771 26.0431 20.1419 26.0653 20.0993C26.0726 20.0849 26.0803 20.0635 26.0875 20.0497C26.1098 20.0001 26.117 19.95 26.117 19.9004C26.117 19.886 26.1242 19.879 26.1242 19.8646L26.117 18.9896C26.102 17.3116 26.102 16.3017 26.5762 15.8393C27.2576 15.1781 29.309 15.1494 33.5005 15.1494C37.6477 15.1494 39.6696 15.1776 40.3733 15.8607C40.8842 16.3587 40.8842 17.4609 40.8769 19.2813V19.8716C40.8769 20.1206 41.0546 20.3195 41.2917 20.3766C41.3067 20.3835 41.3212 20.3909 41.3362 20.3979C41.5289 20.4405 42.077 21.1231 42.077 22.1543C42.077 23.7188 41.1363 23.8681 41.144 23.8681C40.8847 23.8681 40.6625 24.0387 40.6031 24.2733C39.6774 27.9142 36.9374 31.5907 33.4933 31.5907C30.0497 31.5907 27.317 27.9072 26.3835 24.2733C26.3241 24.0318 26.1464 23.8681 25.887 23.8681C25.8498 23.8611 24.9097 23.7188 24.9097 22.1473C24.9174 21.1156 25.4727 20.44 25.6654 20.3904L25.6655 20.3904ZM28.8792 34.1287C29.153 34.093 29.3534 33.8658 29.3534 33.6025V31.0995C30.5607 32.0593 31.968 32.6639 33.4934 32.6639C35.0189 32.6639 36.4261 32.0593 37.6334 31.0995V33.6025C37.6334 33.8653 37.8333 34.093 38.1076 34.1287C38.1226 34.1287 38.3148 34.157 38.6407 34.2071C38.5663 38.0468 34.6635 41.3533 33.5007 42.2567C32.3306 41.3534 28.435 38.0538 28.3534 34.2071C28.6721 34.157 28.8648 34.1287 28.8793 34.1287H28.8792ZM18.6152 55.9241V36.1059C19.8813 35.6436 22.503 35.1386 24.7842 34.7616V40.9768C20.1778 43.1316 19.7852 46.1891 19.7852 50.2565C19.7629 50.3914 19.7852 50.5551 19.8812 50.7188C20.1034 51.06 20.5998 51.2168 21.5105 51.2381C21.6588 51.4727 21.8809 51.622 22.1031 51.6577C22.1325 51.6647 22.1625 51.6647 22.1919 51.6647C22.4585 51.6647 22.6956 51.4797 22.74 51.2168C22.7772 50.9891 22.6584 50.7689 22.4585 50.6622V50.6409C22.6734 50.5273 22.7917 50.2996 22.7322 50.0576C22.6656 49.7733 22.3696 49.5883 22.0731 49.6523C21.836 49.7019 21.5989 49.8869 21.4583 50.1642C21.1846 50.1573 21.0068 50.1359 20.8953 50.1072C20.9025 46.2888 21.2729 43.7997 25.2724 41.9297C29.2712 43.7998 29.6417 46.2958 29.6495 50.1072C29.5456 50.1285 29.3679 50.1498 29.0864 50.1642C28.9459 49.88 28.7087 49.7019 28.4716 49.6523C28.1679 49.5883 27.8791 49.7733 27.8125 50.0576C27.7608 50.2922 27.8791 50.5268 28.0863 50.6409V50.6622C27.8863 50.7689 27.768 50.9891 27.8047 51.2168C27.8491 51.4797 28.0863 51.6647 28.3528 51.6647C28.3823 51.6647 28.4122 51.6647 28.4417 51.6577C28.6638 51.622 28.8859 51.4727 29.0342 51.2381C29.9449 51.2168 30.4414 51.0605 30.6635 50.7188C30.7673 50.5625 30.7818 50.3988 30.7596 50.2565C30.7596 46.2317 30.3669 43.1951 25.8938 41.0477V34.6053H25.7678C26.3086 34.52 26.8195 34.4416 27.2566 34.3707C27.4638 39.3344 32.9443 43.2025 33.1814 43.3662C33.2775 43.4301 33.3963 43.4659 33.5073 43.4659C33.6184 43.4659 33.7367 43.4301 33.8333 43.3662C34.0704 43.2025 39.5503 39.3339 39.7581 34.3707C40.1429 34.4277 40.58 34.4986 41.0542 34.5696V45.0085C39.788 45.2575 38.8252 46.3384 38.8252 47.6255C38.8252 49.0977 40.0769 50.2921 41.6096 50.2921C43.1429 50.2921 44.3941 49.0977 44.3941 47.6255C44.3941 46.3382 43.4389 45.2575 42.1651 45.0085L42.1656 34.7476C44.5057 35.1385 47.2162 35.6434 48.3568 36.0844C48.3718 36.0913 48.3863 36.0913 48.4013 36.0913V55.9311L18.6154 55.9316L18.6152 55.9241ZM39.2998 59.7073C39.2998 59.999 39.0483 60.2405 38.7445 60.2405H28.2578C27.954 60.2405 27.7024 59.999 27.7024 59.7073C27.7024 59.4157 27.954 59.1741 28.2578 59.1741H38.7445C39.0483 59.1736 39.2998 59.4157 39.2998 59.7073Z" fill="#282625"/>
</g>
<defs>
<clipPath id="clip0_77_22515">
<rect width="65" height="65" fill="white" transform="translate(0.75 0.09375)"/>
</clipPath>
</defs>
</svg>
