<svg width="66" height="66" viewBox="0 0 66 66" fill="none" xmlns="http://www.w3.org/2000/svg">
<g clip-path="url(#clip0_77_22499)">
<path d="M35 6.50008L30 6.50004C29.4221 6.50004 29 6.42262 29 7.00004C29 7.57796 29.5175 7.50008 30.0949 7.50008H34.913C35.4909 7.50008 36 7.57767 36 7.00024C36.0005 6.42282 35.5779 6.50008 35 6.50008Z" fill="#282625"/>
<path d="M46.2545 0.244141H18.7538C16.2056 0.244141 14.1309 2.31888 14.1309 4.86705V60.377C14.1309 62.9252 16.2056 64.9999 18.7538 64.9999H46.247C48.7952 64.9999 50.8699 62.9252 50.8699 60.377V4.86705C50.8699 2.31888 48.7953 0.244141 46.2545 0.244141ZM49.7818 60.369C49.7818 61.7614 47.6468 63.9032 46.2477 63.9032L18.7531 63.9036C17.3608 63.9036 15.219 61.7687 15.219 60.3695V4.86704C15.219 3.47472 17.354 1.33292 18.7531 1.33292H46.2464C47.6387 1.33292 49.7805 3.46787 49.7805 4.86704L49.7818 60.369Z" fill="#282625"/>
<path d="M32.504 52.1548C30.6241 52.1548 29.0996 53.6798 29.0996 55.5592C29.0996 57.4391 30.6246 58.9636 32.504 58.9636C34.3839 58.9636 35.9084 57.4386 35.9084 55.5592C35.9084 53.6793 34.3839 52.1548 32.504 52.1548ZM32.504 57.8753C31.0177 57.8753 30.1879 57.0002 30.1879 55.5592C30.1879 54.0002 31.007 53.2431 32.504 53.2431C34.001 53.2431 34.8201 54.0002 34.8201 55.5592C34.8201 56.9138 33.9903 57.8753 32.504 57.8753Z" fill="#282625"/>
</g>
<defs>
<clipPath id="clip0_77_22499">
<rect width="65" height="65" fill="white" transform="translate(0.25 0.09375)"/>
</clipPath>
</defs>
</svg>
