<svg width="66" height="66" viewBox="0 0 66 66" fill="none" xmlns="http://www.w3.org/2000/svg">
<g clip-path="url(#clip0_77_22485)">
<path fill-rule="evenodd" clip-rule="evenodd" d="M36.2554 11.3961C36.0575 11.393 35.8601 11.4729 35.7191 11.6118C35.5781 11.7507 35.4961 11.9471 35.4961 12.145C35.4961 12.3429 35.5786 12.5393 35.7191 12.6782C35.8601 12.8171 36.0575 12.8965 36.2554 12.8939H38.7732C38.9711 12.897 39.1685 12.8171 39.3096 12.6782C39.4506 12.5393 39.5326 12.3429 39.5326 12.145C39.5326 11.9471 39.45 11.7507 39.3096 11.6118C39.1685 11.4729 38.9711 11.3935 38.7732 11.3961H36.2554Z" fill="#282625"/>
<path fill-rule="evenodd" clip-rule="evenodd" d="M42.5172 11.3961C42.3192 11.393 42.1218 11.4729 41.9808 11.6118C41.8398 11.7507 41.7578 11.9471 41.7578 12.145C41.7578 12.3429 41.8403 12.5393 41.9808 12.6782C42.1218 12.8171 42.3192 12.8965 42.5172 12.8939H45.0349C45.2329 12.897 45.4303 12.8171 45.5713 12.6782C45.7123 12.5393 45.7943 12.3429 45.7943 12.145C45.7943 11.9471 45.7123 11.7507 45.5713 11.6118C45.4303 11.4729 45.2329 11.3935 45.0349 11.3961H42.5172Z" fill="#282625"/>
<path fill-rule="evenodd" clip-rule="evenodd" d="M48.7808 11.3961C48.5829 11.393 48.3855 11.4729 48.2445 11.6118C48.1035 11.7507 48.0215 11.9471 48.0215 12.145C48.0215 12.3429 48.1035 12.5393 48.2445 12.6782C48.3855 12.8171 48.5829 12.8965 48.7808 12.8939H51.2912C51.4892 12.897 51.6866 12.8171 51.8276 12.6782C51.9686 12.5393 52.0506 12.3429 52.0506 12.145C52.0506 11.9471 51.9686 11.7507 51.8276 11.6118C51.6866 11.4729 51.4892 11.3935 51.2912 11.3961H48.7808Z" fill="#282625"/>
<path fill-rule="evenodd" clip-rule="evenodd" d="M7.20289 5.43115C3.96237 5.43115 1.30664 8.08728 1.30664 11.3274V49.7983C1.30664 53.0388 3.96277 55.695 7.20289 55.695H45.3623C47.4984 58.0722 50.5953 59.5691 54.0358 59.5691C60.4647 59.5691 65.6945 54.3461 65.6945 47.9099C65.6945 42.573 62.0915 38.0635 57.1897 36.6847V11.3279C57.1897 8.08742 54.5336 5.43169 51.2931 5.43169L7.20289 5.43115ZM7.20289 6.92841H51.2931C53.7174 6.92841 55.6924 8.9031 55.6924 11.3273V17.2104H2.80377V11.3273C2.80377 8.90296 4.77845 6.92841 7.20262 6.92841H7.20289ZM2.80403 18.7077H55.6927V36.3689C55.1511 36.2916 54.5986 36.2508 54.0361 36.2508C47.6067 36.2508 42.3774 41.4801 42.3774 47.9095C42.3774 50.2246 43.0543 52.3826 44.2199 54.1973H7.20356C4.77925 54.1973 2.8047 52.2227 2.8047 49.798L2.80403 18.7077ZM54.0362 37.7486C59.6561 37.7486 64.1976 42.2901 64.1976 47.91C64.1976 53.5378 59.6567 58.072 54.0362 58.072C48.4158 58.072 43.8748 53.5383 43.8748 47.91C43.8748 42.2901 48.4163 37.7486 54.0362 37.7486Z" fill="#282625" stroke="#FFFCF9" stroke-width="0.4"/>
<path fill-rule="evenodd" clip-rule="evenodd" d="M53.8207 42.8455C53.6285 42.8528 53.44 42.9338 53.3058 43.0717L48.9894 47.3803C48.8505 47.5187 48.7701 47.7135 48.7695 47.9098C48.7695 48.1057 48.85 48.301 48.9889 48.4394L53.3052 52.7557C53.4431 52.8978 53.639 52.9813 53.8369 52.9824C54.0348 52.9824 54.2317 52.903 54.3717 52.7631C54.5116 52.6231 54.5921 52.4262 54.591 52.2283C54.5894 52.0303 54.5059 51.8345 54.3644 51.6966L51.3264 48.6586H58.5559C58.7538 48.6586 58.9512 48.5819 59.0922 48.443C59.2332 48.304 59.3152 48.1077 59.3152 47.9097C59.3152 47.7118 59.2332 47.5154 59.0922 47.3765C58.9512 47.2376 58.7538 47.1582 58.5559 47.1608H51.3289L54.3642 44.1307C54.4718 44.0263 54.5465 43.8895 54.5763 43.7427C54.606 43.596 54.5904 43.4403 54.5324 43.3025C54.4739 43.1646 54.3736 43.045 54.2478 42.9641C54.1219 42.8831 53.971 42.8413 53.8216 42.8455L53.8207 42.8455Z" fill="#282625"/>
</g>
<defs>
<clipPath id="clip0_77_22485">
<rect width="65" height="65" fill="white" transform="translate(0.75 0.09375)"/>
</clipPath>
</defs>
</svg>
