<svg width="90" height="90" viewBox="0 0 90 90" fill="none" xmlns="http://www.w3.org/2000/svg">
<path fill-rule="evenodd" clip-rule="evenodd" d="M48.7493 37.5733C48.7498 37.5489 48.75 37.5245 48.75 37.5C48.75 35.4289 47.0711 33.75 45 33.75C43.8522 33.75 42.8249 34.2657 42.137 35.078L42.1268 35.0742L42.0697 35.1597C41.9357 35.3272 41.8159 35.5065 41.7118 35.6956L34.5293 46.4517L34.5316 46.4582C34.0416 47.0919 33.75 47.8869 33.75 48.75C33.75 50.5454 35.0117 52.0461 36.6969 52.4138L41.2493 54.3755V60.0005L41.25 60.0007C41.2504 62.0715 42.9292 63.75 45 63.75C46.1491 63.75 47.1775 63.2332 47.8654 62.4193L47.8755 62.423L47.933 62.3369C48.0653 62.171 48.1839 61.9937 48.2869 61.8067L55.4693 51.0455L55.4681 51.0422C55.9583 50.4084 56.25 49.6133 56.25 48.75C56.25 46.9583 54.9934 45.46 53.3135 45.0885L48.7493 43.1255V37.5733Z" fill="url(#paint0_linear_791_2077)"/>
<path d="M70.6622 27.5775L68.2284 28.98L57.9909 11.25C55.2797 6.555 50.4234 3.75 45.0009 3.75C39.5784 3.75 34.7222 6.555 32.0109 11.2463L30.3834 14.0588C29.3484 15.855 29.9634 18.1463 31.7559 19.185C33.5522 20.2125 35.8434 19.605 36.8822 17.8162L38.5097 15C39.8634 12.6525 42.2897 11.25 45.0009 11.25C47.7122 11.25 50.1384 12.6525 51.4922 15L61.7297 32.7338L59.0859 34.26C57.1584 35.3737 57.1584 38.1563 59.0859 39.27L70.6584 45.9525C72.5897 47.07 75.0009 45.675 75.0009 43.4475V30.0862C75.0009 27.8587 72.5897 26.4675 70.6622 27.5775Z" fill="url(#paint1_linear_791_2077)"/>
<path d="M83.9729 56.2506L81.2654 51.5631C80.2266 49.7669 77.9279 49.1519 76.1429 50.1906C74.3466 51.2256 73.7316 53.5206 74.7704 55.3131L77.4741 60.0006C78.8279 62.3481 78.8279 65.1531 77.4741 67.5006C76.1204 69.8481 73.6866 71.2506 70.9791 71.2506H37.4991V67.8344C37.4991 65.6031 35.0841 64.2119 33.1529 65.3256L21.5804 72.0231C19.6529 73.1369 19.6529 75.9231 21.5804 77.0369L33.1529 83.7344C35.0841 84.8519 37.4991 83.4606 37.4991 81.2294V78.7506H70.9791C76.4016 78.7506 81.2579 75.9456 83.9691 71.2506C86.6804 66.5556 86.6804 60.9494 83.9729 56.2506Z" fill="url(#paint2_linear_791_2077)"/>
<path d="M26.5984 22.4814L15.0222 29.1639C13.0947 30.2777 13.0947 33.0602 15.0222 34.1739L17.8347 35.7977L6.02594 56.2502C2.56469 62.2464 3.64469 69.7877 8.64719 74.6027C9.37844 75.3002 10.3159 75.6489 11.2497 75.6489C12.2359 75.6489 13.2147 75.2627 13.9534 74.4977C15.3897 73.0052 15.3409 70.6314 13.8522 69.1952C11.7259 67.1514 10.4922 63.5177 12.5247 60.0002L24.3334 39.5514L26.5984 40.8602C28.5259 41.9739 30.9372 40.5827 30.9372 38.3552V24.9902C30.9372 22.7627 28.5259 21.3677 26.5984 22.4814Z" fill="url(#paint3_linear_791_2077)"/>
<defs>
<linearGradient id="paint0_linear_791_2077" x1="39.5" y1="39.5" x2="51.5" y2="57.5" gradientUnits="userSpaceOnUse">
<stop stop-color="#EDD60A"/>
<stop offset="1" stop-color="#E9AE17"/>
</linearGradient>
<linearGradient id="paint1_linear_791_2077" x1="29.8809" y1="3.75" x2="74.9784" y2="46.4716" gradientUnits="userSpaceOnUse">
<stop stop-color="#FE9901"/>
<stop offset="1" stop-color="#FF6000"/>
</linearGradient>
<linearGradient id="paint2_linear_791_2077" x1="20.1348" y1="49.6855" x2="51.9598" y2="104.116" gradientUnits="userSpaceOnUse">
<stop stop-color="#FE9901"/>
<stop offset="1" stop-color="#FF6000"/>
</linearGradient>
<linearGradient id="paint3_linear_791_2077" x1="4.01172" y1="22.0898" x2="46.4885" y2="41.1874" gradientUnits="userSpaceOnUse">
<stop stop-color="#FE9901"/>
<stop offset="1" stop-color="#FF6000"/>
</linearGradient>
</defs>
</svg>
