<svg width="94" height="94" viewBox="0 0 94 94" fill="none" xmlns="http://www.w3.org/2000/svg">
<path opacity="0.3" d="M58.75 58.75C47 58.75 74.4167 59.925 66.5833 59.925V28.9833C74.4167 28.9833 50.9167 27.4167 58.75 27.4167C61.1 27.4167 63.8417 28.2 66.5833 28.9833V11.75H23.5V82.25H66.5833V59.925C64.2333 59.1417 61.4917 58.75 58.75 58.75Z" fill="url(#paint0_linear_791_2071)"/>
<path d="M66.584 86.1673H27.4173C23.109 86.1673 19.584 82.6423 19.584 78.334V15.6673C19.584 11.359 23.109 7.83398 27.4173 7.83398H66.584C70.8923 7.83398 74.4173 11.359 74.4173 15.6673V31.334H66.584V15.6673H27.4173V78.334H66.584V62.6673H74.4173V78.334C74.4173 82.6423 70.8923 86.1673 66.584 86.1673Z" fill="url(#paint1_linear_791_2071)"/>
<path d="M72.0667 27.8083C68.15 25.85 63.45 23.5 58.75 23.5C54.05 23.5 49.35 25.85 45.4333 27.8083C41.5167 29.7667 38.3833 31.3333 35.25 31.3333V39.1667C39.95 39.1667 44.65 36.8167 48.5667 34.8583C52.4833 32.9 55.6167 31.3333 58.75 31.3333C61.8833 31.3333 65.0167 32.9 68.9333 34.8583C72.85 36.8167 77.55 39.1667 82.25 39.1667V31.3333C79.1167 31.3333 75.9833 29.7667 72.0667 27.8083ZM58.75 54.8333C54.05 54.8333 49.35 57.1833 45.4333 59.1417C41.5167 61.1 38.3833 62.6667 35.25 62.6667V70.5C39.95 70.5 44.65 68.15 48.5667 66.1917C52.0917 64.2333 55.6167 62.6667 58.75 62.6667C61.8833 62.6667 65.0167 64.2333 68.9333 66.1917C73.2417 68.15 77.55 70.5 82.25 70.5V62.6667C79.1167 62.6667 75.9833 61.1 72.0667 59.1417C68.15 57.1833 63.45 54.8333 58.75 54.8333ZM58.75 39.1667C54.05 39.1667 49.35 41.5167 45.4333 43.475C41.5167 45.4333 38.3833 47 35.25 47V54.8333C39.95 54.8333 44.65 52.4833 48.5667 50.525C52.0917 48.5667 55.6167 47 58.75 47C61.8833 47 65.0167 48.5667 68.9333 50.525C73.2417 52.4833 77.55 54.8333 82.25 54.8333V47C79.1167 47 75.9833 45.4333 72.0667 43.475C68.15 41.5167 63.45 39.1667 58.75 39.1667Z" fill="#6D6C6D"/>
<path d="M19.5 42.6917V51.3083C19.1083 50.9167 18.325 50.9167 17.9333 50.525C14.0167 48.5667 10.8833 47 7.75 47V39.1667C12.0583 39.1667 15.975 40.7333 19.5 42.6917Z" fill="#6D6C6D"/>
<path d="M19.5 27.025V35.6417C19.1083 35.25 18.325 35.25 17.9333 34.8583C14.0167 32.9 10.8833 31.3333 7.75 31.3333V23.5C12.0583 23.5 15.975 25.0667 19.5 27.025Z" fill="#6D6C6D"/>
<path d="M7.75 54.8333C12.0583 54.8333 15.975 56.4 19.5 58.3583V66.975C19.1083 66.5833 18.325 66.5833 17.9333 66.1917C14.0167 64.2333 10.8833 62.6667 7.75 62.6667V54.8333Z" fill="#6D6C6D"/>
<path d="M19.5 42.6917V51.3083C19.1083 50.9167 18.325 50.9167 17.9333 50.525C14.0167 48.5667 10.8833 47 7.75 47V39.1667C12.0583 39.1667 15.975 40.7333 19.5 42.6917Z" fill="#8CCFB9"/>
<path d="M19.5 27.025V35.6417C19.1083 35.25 18.325 35.25 17.9333 34.8583C14.0167 32.9 10.8833 31.3333 7.75 31.3333V23.5C12.0583 23.5 15.975 25.0667 19.5 27.025Z" fill="#8CCFB9"/>
<path d="M7.75 54.8333C12.0583 54.8333 15.975 56.4 19.5 58.3583V66.975C19.1083 66.5833 18.325 66.5833 17.9333 66.1917C14.0167 64.2333 10.8833 62.6667 7.75 62.6667V54.8333Z" fill="#8CCFB9"/>
<defs>
<linearGradient id="paint0_linear_791_2071" x1="23.5" y1="11.75" x2="75.266" y2="18.838" gradientUnits="userSpaceOnUse">
<stop stop-color="#69A891"/>
<stop offset="1" stop-color="#72A998"/>
</linearGradient>
<linearGradient id="paint1_linear_791_2071" x1="19.584" y1="7.83398" x2="85.0917" y2="18.1083" gradientUnits="userSpaceOnUse">
<stop stop-color="#6D6C6D"/>
<stop offset="1" stop-color="#282625"/>
</linearGradient>
</defs>
</svg>
