<svg width="94" height="94" viewBox="0 0 94 94" fill="none" xmlns="http://www.w3.org/2000/svg">
<path opacity="0.8" d="M74.0391 39.7508C75.1406 37.6945 75.7281 35.3445 75.7281 32.8477C75.7281 24.7695 69.1922 18.1602 61.1141 18.1602C53.0359 18.1602 46.5 24.7695 46.5 32.8477C46.5 33.2148 46.5 33.5086 46.5734 33.8758C46.5 33.8758 46.4266 33.9492 46.3531 33.9492C46.3531 33.582 46.4266 33.2148 46.4266 32.8477C46.4266 24.7695 39.8906 18.1602 31.8125 18.1602C23.7344 18.1602 17.1984 24.7695 17.1984 32.8477C17.1984 33.2148 17.1984 33.5086 17.2719 33.8758C9.63438 36.4461 4.27344 43.5695 4.27344 51.9414C4.27344 62.5164 12.7922 71.0352 23.2938 71.0352H68.4578C77.3438 71.0352 84.5406 63.8383 84.5406 54.8789C84.5406 47.9758 80.1344 42.0273 74.0391 39.7508Z" fill="url(#paint0_linear_791_2052)"/>
<path d="M61.5398 35.5441C62.7883 33.1941 63.5227 30.5504 63.5227 27.6863C63.5227 18.4332 56.032 10.8691 46.7789 10.8691C37.5258 10.8691 30.0352 18.4332 30.0352 27.6863C30.0352 28.0535 30.0352 28.4941 30.1086 28.8613C21.5164 31.7988 15.3477 39.9504 15.3477 49.4973C15.3477 61.541 25.0414 71.3082 37.0852 71.3082H55.1508C65.2852 71.3082 73.5102 63.0098 73.5102 52.8754C73.5102 44.9441 68.5164 38.1879 61.5398 35.5441Z" fill="white"/>
<path opacity="0.5" d="M46.7789 10.8691C44.1352 10.8691 41.6383 11.4566 39.4352 12.5582C38.4805 13.0723 37.5258 13.6598 36.6445 14.3207C37.0852 14.2473 37.5992 14.2473 38.0398 14.2473C47.293 14.2473 54.7836 21.7379 54.7836 31.0645C54.7836 33.9285 54.0492 36.5723 52.8008 38.9223C59.7773 41.566 64.7711 48.3223 64.7711 56.2535C64.7711 62.4223 61.7602 67.7832 57.207 71.1613C66.3867 70.1332 73.5102 62.2754 73.5102 52.8754C73.5102 44.9441 68.5164 38.1879 61.5398 35.5441C62.7883 33.1941 63.5227 30.5504 63.5227 27.6863C63.5227 18.4332 56.032 10.8691 46.7789 10.8691Z" fill="url(#paint1_linear_791_2052)"/>
<path d="M55.1508 73.5836H37.0852C23.8664 73.5836 13.1445 62.7883 13.1445 49.5695C13.1445 39.8023 19.0195 31.1367 27.832 27.3914C28.0523 17.1102 36.4242 8.73828 46.7789 8.73828C57.207 8.73828 65.7258 17.257 65.7258 27.7586C65.7258 30.0352 65.2852 32.3852 64.4773 34.5148C71.307 38.0398 75.7133 45.1633 75.7133 52.9477C75.7133 64.257 66.4602 73.5836 55.1508 73.5836ZM46.7789 13.1445C38.7742 13.1445 32.2383 19.6805 32.2383 27.7586C32.2383 28.1258 32.2383 28.4195 32.3117 28.7867C32.3852 29.8148 31.7977 30.6961 30.843 30.9898C22.8383 33.6336 17.5508 41.1242 17.5508 49.4961C17.5508 60.2914 26.2898 69.1039 37.0852 69.1039H55.1508C64.1102 69.1039 71.307 61.8336 71.307 52.8742C71.307 46.118 67.0477 39.9492 60.732 37.5992C60.1445 37.3789 59.7039 36.9383 59.4102 36.3508C59.1898 35.7633 59.1898 35.1023 59.557 34.5148C60.6586 32.4586 61.2461 30.0352 61.2461 27.6852C61.3195 19.6805 54.7836 13.1445 46.7789 13.1445Z" fill="#3D7341"/>
<path d="M44.4297 89.5211C43.1812 89.5211 42.2266 88.5664 42.2266 87.318V34.957C42.2266 33.7086 43.1812 32.7539 44.4297 32.7539C45.6781 32.7539 46.6328 33.7086 46.6328 34.957V87.318C46.6328 88.493 45.6781 89.5211 44.4297 89.5211Z" fill="#673E25"/>
<path d="M44.4293 51.6997C44.1356 51.6997 43.7684 51.6262 43.4747 51.4793L30.109 45.1637C29.0075 44.6497 28.5668 43.3278 29.0809 42.2262C29.595 41.1247 30.9168 40.684 32.0184 41.1981L45.384 47.5872C46.4856 48.1012 46.9262 49.4231 46.4122 50.5247C46.045 51.259 45.2372 51.6997 44.4293 51.6997ZM44.4293 65.2122C43.6215 65.2122 42.8137 64.7715 42.4465 63.9637C41.9325 62.8622 42.3731 61.5403 43.4012 61.0262L56.6934 54.4168C57.795 53.9028 59.1168 54.3434 59.6309 55.3715C60.145 56.4731 59.7043 57.795 58.6762 58.309L45.384 64.9184C45.0903 65.1387 44.7965 65.2122 44.4293 65.2122Z" fill="#673E25"/>
<defs>
<linearGradient id="paint0_linear_791_2052" x1="4.27344" y1="18.1602" x2="92.337" y2="48.1134" gradientUnits="userSpaceOnUse">
<stop stop-color="#137C4C"/>
<stop offset="1" stop-color="#0C4D0F"/>
</linearGradient>
<linearGradient id="paint1_linear_791_2052" x1="36.6445" y1="10.8691" x2="80.9388" y2="16.9375" gradientUnits="userSpaceOnUse">
<stop stop-color="#137C4C"/>
<stop offset="1" stop-color="#0C4D0F"/>
</linearGradient>
</defs>
</svg>
