<svg width="153" height="86" viewBox="0 0 153 86" fill="none" xmlns="http://www.w3.org/2000/svg">
<path d="M19.8851 3C18.4187 3.27644 17.361 4.57452 17.3851 6.07692V55.3077H23.5389V9.15385H69.6928V67.6154C69.6928 72.5793 65.7505 76.6418 60.8466 76.8462C60.7144 76.8462 60.5942 76.8462 60.462 76.8462C59.9812 76.8462 59.3442 76.6418 58.6351 75.5962C57.9259 74.5505 57.3851 72.7596 57.3851 70.6923C57.3851 68.625 57.9259 66.8341 58.6351 65.7885C59.3442 64.7428 59.9812 64.5385 60.462 64.5385C62.1447 64.5144 63.4908 63.1442 63.4908 61.4615C63.4908 59.7788 62.1447 58.4087 60.462 58.3846H17.3851C14.4764 58.3846 11.9884 60.1635 10.462 62.4231C8.93555 64.6827 8.1543 67.5312 8.1543 70.6923C8.1543 73.8534 8.93555 76.7019 10.462 78.9615C11.9884 81.2212 14.4764 83 17.3851 83H60.462C60.5581 83 60.6543 83 60.7505 83C60.7865 83 60.8105 83 60.8466 83C69.1158 82.7837 75.8466 75.9327 75.8466 67.6154V6.07692C75.8466 4.38221 74.4644 3 72.7697 3H20.462C20.3658 3 20.2697 3 20.1735 3C20.0774 3 19.9812 3 19.8851 3ZM17.3851 64.5385H52.962C52.1086 66.4375 51.2312 68.3365 51.2312 70.6923C51.2312 73.0481 52.1086 74.9471 52.962 76.8462H17.3851C16.9043 76.8462 16.2673 76.6418 15.5581 75.5962C14.849 74.5505 14.3081 72.7596 14.3081 70.6923C14.3081 68.625 14.849 66.8341 15.5581 65.7885C16.2673 64.7428 16.9043 64.5385 17.3851 64.5385Z" fill="url(#paint0_linear_791_2061)"/>
<path d="M104.846 3C102.995 3 101.769 4.22596 101.769 6.07692V13.2885C94.5931 15.8125 89.4609 22.6274 89.4609 30.6923C89.4609 33.0481 90.3864 35.2115 91.8648 36.8462C90.3864 38.4808 89.4609 40.6442 89.4609 43C89.4609 45.3558 90.3864 47.5192 91.8648 49.1538C90.3864 50.7885 89.4609 52.9519 89.4609 55.3077C89.4609 57.6635 90.3864 59.8269 91.8648 61.4615C90.3864 63.0962 89.4609 65.2596 89.4609 67.6154V73.7692C89.4609 78.8293 93.6316 83 98.6917 83H123.307C128.367 83 132.538 78.8293 132.538 73.7692V67.6154C132.538 65.2596 131.612 63.0962 130.134 61.4615C131.612 59.8269 132.538 57.6635 132.538 55.3077C132.538 52.9519 131.612 50.7885 130.134 49.1538C131.612 47.5192 132.538 45.3558 132.538 43C132.538 40.6442 131.612 38.4808 130.134 36.8462C131.612 35.2115 132.538 33.0481 132.538 30.6923C132.538 22.6274 127.406 15.8125 120.23 13.2885V6.07692C120.23 4.22596 119.004 3 117.153 3H104.846ZM107.922 18.3846H114.076C121.084 18.3846 126.384 23.6851 126.384 30.6923C126.384 32.399 125.014 33.7692 123.307 33.7692C123.211 33.7692 123.115 33.7692 123.019 33.7692C121.973 33.8293 121.035 34.4062 120.519 35.3077C120.519 35.3438 120.519 35.3678 120.519 35.4038C120.122 36.101 120.026 36.9303 120.23 37.7115C120.266 37.7476 120.29 37.7716 120.326 37.8077C120.326 37.8678 120.326 37.9399 120.326 38C120.362 38.0361 120.386 38.0601 120.422 38.0962C120.519 38.3365 120.651 38.5649 120.807 38.7692C120.843 38.8053 120.867 38.8293 120.903 38.8654C121.12 39.1298 121.384 39.3582 121.672 39.5385C121.733 39.5745 121.805 39.6106 121.865 39.6346C121.901 39.6707 121.925 39.6947 121.961 39.7308C122.021 39.7308 122.093 39.7308 122.153 39.7308C122.189 39.7668 122.213 39.7909 122.249 39.8269C122.309 39.8269 122.382 39.8269 122.442 39.8269C122.478 39.8269 122.502 39.8269 122.538 39.8269C122.73 39.875 122.922 39.9111 123.115 39.9231C123.151 39.9231 123.175 39.9231 123.211 39.9231C123.247 39.9231 123.271 39.9231 123.307 39.9231C125.014 39.9231 126.384 41.2933 126.384 43C126.384 44.7067 125.014 46.0769 123.307 46.0769C123.211 46.0769 123.115 46.0769 123.019 46.0769C121.973 46.137 121.035 46.7139 120.519 47.6154C120.519 47.6514 120.519 47.6755 120.519 47.7115C120.122 48.4087 120.026 49.238 120.23 50.0192C120.266 50.0553 120.29 50.0793 120.326 50.1154C120.326 50.1755 120.326 50.2476 120.326 50.3077C120.362 50.3438 120.386 50.3678 120.422 50.4038C120.519 50.6442 120.651 50.8726 120.807 51.0769C120.843 51.113 120.867 51.137 120.903 51.1731C121.12 51.4375 121.384 51.6659 121.672 51.8462C121.733 51.8822 121.805 51.9183 121.865 51.9423C121.901 51.9784 121.925 52.0024 121.961 52.0385C122.021 52.0385 122.093 52.0385 122.153 52.0385C122.189 52.0745 122.213 52.0986 122.249 52.1346C122.309 52.1346 122.382 52.1346 122.442 52.1346C122.478 52.1346 122.502 52.1346 122.538 52.1346C122.634 52.1707 122.73 52.2067 122.826 52.2308C122.959 52.2428 123.079 52.2428 123.211 52.2308C123.247 52.2308 123.271 52.2308 123.307 52.2308C125.014 52.2308 126.384 53.601 126.384 55.3077C126.384 57.0144 125.014 58.3846 123.307 58.3846C122.802 58.3966 122.309 58.5288 121.865 58.7692C121.588 58.8894 121.324 59.0577 121.096 59.25C121.023 59.3462 120.963 59.4423 120.903 59.5385C120.831 59.5986 120.771 59.6587 120.711 59.7308C120.434 60.1635 120.266 60.6562 120.23 61.1731C120.23 61.2692 120.23 61.3654 120.23 61.4615C120.218 62.0024 120.35 62.5312 120.615 63C120.639 63.0601 120.675 63.1322 120.711 63.1923C120.771 63.2885 120.831 63.3846 120.903 63.4808C121.132 63.7091 121.384 63.9014 121.672 64.0577C121.733 64.1298 121.793 64.1899 121.865 64.25C122.165 64.3942 122.49 64.4904 122.826 64.5385C122.983 64.5505 123.151 64.5505 123.307 64.5385C125.014 64.5385 126.384 65.9087 126.384 67.6154V73.7692C126.384 75.476 125.014 76.8462 123.307 76.8462H98.6917C96.985 76.8462 95.6148 75.476 95.6148 73.7692V67.6154C95.6148 65.9087 96.985 64.5385 98.6917 64.5385C98.9802 64.5505 99.2806 64.5144 99.5571 64.4423C99.7614 64.3702 99.9537 64.274 100.134 64.1538C101.132 63.625 101.757 62.5914 101.769 61.4615C101.793 61.2332 101.793 61.0168 101.769 60.7885C101.684 60.476 101.552 60.1875 101.384 59.9231C101.36 59.863 101.324 59.7909 101.288 59.7308C100.939 59.2019 100.434 58.8053 99.8456 58.5769C99.7494 58.5409 99.6532 58.5048 99.5571 58.4808C99.2806 58.4087 98.9802 58.3726 98.6917 58.3846C96.985 58.3846 95.6148 57.0144 95.6148 55.3077C95.6148 53.601 96.985 52.2308 98.6917 52.2308C98.9802 52.2428 99.2806 52.2067 99.5571 52.1346C99.7614 52.0625 99.9537 51.9663 100.134 51.8462C101.132 51.3173 101.757 50.2837 101.769 49.1538C101.793 48.9255 101.793 48.7091 101.769 48.4808C101.684 48.1683 101.552 47.8798 101.384 47.6154C101.36 47.5553 101.324 47.4832 101.288 47.4231C100.939 46.8942 100.434 46.4976 99.8456 46.2692C99.7494 46.2332 99.6532 46.1971 99.5571 46.1731C99.2806 46.101 98.9802 46.0649 98.6917 46.0769C96.985 46.0769 95.6148 44.7067 95.6148 43C95.6148 41.2933 96.985 39.9231 98.6917 39.9231C98.9802 39.9351 99.2806 39.899 99.5571 39.8269C99.7614 39.7548 99.9537 39.6587 100.134 39.5385C101.132 39.0096 101.757 37.976 101.769 36.8462C101.793 36.6178 101.793 36.4014 101.769 36.1731C101.684 35.8606 101.552 35.5721 101.384 35.3077C101.36 35.2476 101.324 35.1755 101.288 35.1154C100.699 34.262 99.7254 33.7572 98.6917 33.7692C96.985 33.7692 95.6148 32.399 95.6148 30.6923C95.6148 23.6851 100.915 18.3846 107.922 18.3846Z" fill="url(#paint1_linear_791_2061)"/>
<line x1="2.70816" y1="5.184" x2="148.184" y2="83.2918" stroke="white" stroke-width="4" stroke-linecap="round"/>
<line x1="4.70816" y1="2.184" x2="150.184" y2="80.2918" stroke="#BA1A1A" stroke-width="4" stroke-linecap="round"/>
<defs>
<linearGradient id="paint0_linear_791_2061" x1="8.1543" y1="3" x2="88.1387" y2="18.164" gradientUnits="userSpaceOnUse">
<stop stop-color="#03A9F4"/>
<stop offset="1" stop-color="#088FCC"/>
</linearGradient>
<linearGradient id="paint1_linear_791_2061" x1="89.4609" y1="3" x2="141.433" y2="9.27026" gradientUnits="userSpaceOnUse">
<stop stop-color="#03A9F4"/>
<stop offset="1" stop-color="#088FCC"/>
</linearGradient>
</defs>
</svg>
