<svg width="46" height="33" viewBox="0 0 46 33" fill="none" xmlns="http://www.w3.org/2000/svg">
<path d="M41.6944 16.4375C40.7638 20.2973 38.7456 23.3896 35.6285 25.6919C32.3321 28.1184 28.2395 29.3373 23.3621 29.3373C19.819 29.3373 16.5562 28.5699 13.5625 27.035C10.5687 25.5001 8.15808 23.1978 6.33046 20.128C5.65771 18.9994 5.09709 17.7692 4.65981 16.4488H0.5C0.970922 17.9837 1.56518 19.4395 2.29399 20.8164C4.36828 24.7214 7.23866 27.7121 10.9051 29.8C14.5716 31.8879 18.7202 32.9375 23.3509 32.9375C29.5177 32.9375 34.6082 31.3575 38.6447 28.1974C42.4905 25.1728 44.9348 21.2566 46 16.4601H41.6944V16.4375Z" fill="#FE9901"/>
<path d="M42 0.9375H36.5L42 5.9375V0.9375Z" fill="#FE9901"/>
</svg>
