<svg width="147" height="32" viewBox="0 0 147 32" fill="none" xmlns="http://www.w3.org/2000/svg">
<g clip-path="url(#clip0_77_22385)">
<path d="M122.566 8.64062H117.849V31.4577H122.566V19.4477V13.4027H130.518V8.64062H122.566Z" fill="#FE9901"/>
<path d="M11.2515 9.33447H6.21484L11.2515 14.1215V9.33447Z" fill="#FE9901"/>
<path d="M34.4381 24.4941C34.0238 26.2013 33.1253 27.569 31.7376 28.5874C30.2701 29.6606 28.4481 30.1997 26.2767 30.1997C24.6993 30.1997 23.2468 29.8602 21.914 29.1814C20.5812 28.5025 19.508 27.4842 18.6943 26.1264C18.3948 25.6273 18.1452 25.0832 17.9506 24.4991H16.0986C16.3083 25.178 16.5728 25.8219 16.8973 26.431C17.8208 28.1581 19.0987 29.4808 20.731 30.4043C22.3632 31.3278 24.2102 31.792 26.2717 31.792C29.0172 31.792 31.2834 31.0932 33.0804 29.6955C34.7926 28.3577 35.8807 26.6256 36.355 24.5041H34.4381V24.4941Z" fill="#FE9901"/>
<path d="M6.1897 28.8667C5.60567 28.2727 5.31119 27.1546 5.31119 25.5522V3.63867H3.34444V9.26432H0V10.9915H3.34444V25.5572C3.34444 27.6837 3.80867 29.2311 4.72713 30.1496C5.64561 31.0681 7.0932 31.5373 9.03496 31.5373H11.8752V29.7652H9.31951C7.82699 29.7652 6.77376 29.4608 6.1897 28.8667Z" fill="white"/>
<path d="M31.832 10.3527C30.2646 9.4392 28.3977 8.97998 26.2762 8.97998C24.1847 8.97998 22.2929 9.44419 20.6606 10.3527C19.0233 11.2662 17.7354 12.599 16.8219 14.3111C15.9085 16.0233 15.4492 18.0649 15.4492 20.376C15.4492 20.6006 15.4542 20.8353 15.4692 21.1248L15.4742 21.1897H17.396H17.4964L36.5691 21.1797L36.5741 21.1198C36.629 20.6306 36.654 19.8868 36.654 18.9135C36.654 17.1713 36.2397 15.5241 35.421 14.0116C34.6074 12.4941 33.3994 11.2662 31.832 10.3527ZM26.2363 10.6622C27.7687 10.6622 29.2114 10.9966 30.5242 11.6555C31.837 12.3144 32.8902 13.3278 33.654 14.6655C34.4077 15.9933 34.7571 17.6306 34.6872 19.5374H17.4609C17.5208 17.6306 17.9651 15.9933 18.7737 14.6705C19.5923 13.3278 20.6656 12.3144 21.9684 11.6605C23.2662 10.9966 24.7038 10.6622 26.2363 10.6622Z" fill="white"/>
<path d="M72.7887 9.26448V14.7604C72.115 13.1381 71.0019 11.7753 69.4693 10.7021C67.8373 9.55901 65.8204 8.97998 63.4793 8.97998C61.413 8.97998 59.5459 9.44919 57.9237 10.3727C56.3015 11.3011 55.0185 12.6389 54.105 14.351C53.1915 16.0632 52.7324 18.0898 52.7324 20.376C52.7324 22.6622 53.1966 24.6939 54.105 26.421C55.0185 28.1481 56.3015 29.5009 57.9186 30.4443C59.536 31.3827 61.4078 31.8569 63.4742 31.8569C65.7854 31.8569 67.7972 31.2679 69.4445 30.1148C70.9869 29.0316 72.1099 27.6489 72.784 26.0017V31.5325H74.7506V9.26448H72.7887ZM63.7289 30.0899C61.9817 30.0899 60.4094 29.6955 59.0569 28.9168C57.7039 28.1381 56.6356 27.01 55.8821 25.5624C55.1282 24.1148 54.7488 22.3677 54.7488 20.376C54.7488 18.3843 55.1282 16.6422 55.8821 15.1896C56.6309 13.742 57.6941 12.6189 59.0368 11.8552C60.3796 11.0915 61.957 10.7021 63.7289 10.7021C65.4211 10.7021 66.9737 11.1015 68.3412 11.8951C69.7091 12.6888 70.8073 13.8319 71.5958 15.2945C72.3894 16.757 72.7887 18.4692 72.7887 20.376C72.7887 22.3128 72.3945 24.0349 71.6158 25.5025C70.8372 26.965 69.744 28.1082 68.3612 28.8969C66.9784 29.6906 65.4211 30.0899 63.7289 30.0899Z" fill="white"/>
<path d="M90.5045 12.7937H86.3466V31.4627H81.6592V12.7937H79.0088V9.00503H81.6592V7.41765C81.6592 4.83696 82.3432 2.95509 83.7158 1.77205C85.0888 0.589022 87.24 0 90.1751 0V3.87356C88.7624 3.87356 87.7691 4.13812 87.1999 4.66723C86.6312 5.19634 86.3466 6.11483 86.3466 7.41765V9.00503H90.5045V12.7937Z" fill="#FE9901"/>
<path d="M97.5332 30.3796C95.821 29.4162 94.4783 28.0584 93.5 26.3064C92.5216 24.5542 92.0322 22.5226 92.0322 20.2115C92.0322 17.9302 92.5365 15.9036 93.5396 14.1416C94.5432 12.3745 95.9157 11.0168 97.6578 10.0634C99.3952 9.11493 101.342 8.63574 103.488 8.63574C105.635 8.63574 107.577 9.10994 109.319 10.0634C111.056 11.0168 112.429 12.3745 113.437 14.1416C114.44 15.9086 114.944 17.9302 114.944 20.2115C114.944 22.4927 114.43 24.5193 113.397 26.2864C112.363 28.0534 110.956 29.4162 109.179 30.3846C107.397 31.348 105.435 31.8322 103.289 31.8322C101.162 31.8272 99.2455 31.348 97.5332 30.3796ZM106.643 26.9403C107.686 26.3713 108.54 25.5127 109.189 24.3745C109.843 23.2315 110.167 21.8488 110.167 20.2165C110.167 18.5842 109.853 17.2065 109.229 16.0783C108.605 14.9502 107.776 14.1016 106.743 13.5326C105.709 12.9635 104.596 12.679 103.398 12.679C102.201 12.679 101.097 12.9635 100.079 13.5326C99.0607 14.1016 98.2522 14.9552 97.6531 16.0783C97.0541 17.2065 96.7546 18.5842 96.7546 20.2165C96.7546 22.6374 97.3732 24.5043 98.6063 25.8221C99.8445 27.1399 101.397 27.7989 103.274 27.7989C104.477 27.7939 105.6 27.5093 106.643 26.9403Z" fill="#FE9901"/>
<path d="M140.886 12.7937V25.2231C140.886 26.0667 141.08 26.6707 141.474 27.0351C141.869 27.3994 142.543 27.5841 143.491 27.5841H146.347V31.4577H142.678C140.586 31.4577 138.984 30.9685 137.871 29.9901C136.758 29.0118 136.198 27.4244 136.198 25.2231V12.7937H133.548V9.00503H136.198V3.42432H140.886V9.01003H146.347V12.7987H140.886V12.7937Z" fill="#FE9901"/>
<path d="M40.4375 31.827H42.3843V10.7321H51.4491V9.04492H40.4375V31.827Z" fill="white"/>
</g>
<defs>
<clipPath id="clip0_77_22385">
<rect width="146.347" height="32" fill="white"/>
</clipPath>
</defs>
</svg>
