<svg width="276" height="61" viewBox="0 0 276 61" fill="none" xmlns="http://www.w3.org/2000/svg">
<path d="M230.843 16.3047H221.959V59.2787H230.843V36.6588V25.2737H245.82V16.3047H230.843Z" fill="#FE9901"/>
<path d="M21.1911 17.6113H11.7051L21.1911 26.6273V17.6113Z" fill="#FE9901"/>
<path d="M64.8612 46.1641C64.0809 49.3794 62.3886 51.9554 59.775 53.8732C57.011 55.8946 53.5795 56.9099 49.4899 56.9099C46.519 56.9099 43.7832 56.2706 41.273 54.992C38.7628 53.7134 36.7415 51.7955 35.2091 49.2383C34.645 48.2982 34.1749 47.2734 33.8082 46.1735H30.3203C30.7152 47.4521 31.2134 48.6648 31.8245 49.8118C33.5638 53.0647 35.9706 55.5561 39.0449 57.2954C42.1191 59.0346 45.5977 59.909 49.4805 59.909C54.6513 59.909 58.9195 58.5928 62.304 55.9604C65.5287 53.4408 67.5782 50.1785 68.4714 46.1829H64.8612V46.1641Z" fill="#FE9901"/>
<path d="M11.6578 54.3997C10.5578 53.2809 10.0031 51.175 10.0031 48.1571V6.88477H6.29897V17.4802H0V20.7331H6.29897V48.1665C6.29897 52.1715 7.17331 55.086 8.90317 56.8159C10.633 58.5457 13.3595 59.4295 17.0166 59.4295H22.3661V56.0919H17.5525C14.7415 56.0919 12.7578 55.5185 11.6578 54.3997Z" fill="#282625"/>
<path d="M59.9532 19.5288C57.0012 17.8083 53.485 16.9434 49.4894 16.9434C45.5502 16.9434 41.987 17.8177 38.9128 19.5288C35.8291 21.2492 33.4035 23.7594 31.6831 26.9841C29.9626 30.2088 29.0977 34.054 29.0977 38.4069C29.0977 38.8299 29.1071 39.2718 29.1353 39.8171L29.1447 39.9393H32.7642H32.9533L68.8752 39.9205L68.8846 39.8077C68.988 38.8863 69.035 37.4855 69.035 35.6522C69.035 32.3711 68.2547 29.2687 66.7129 26.42C65.1804 23.562 62.9053 21.2492 59.9532 19.5288ZM49.4142 20.1116C52.3004 20.1116 55.0174 20.7415 57.49 21.9825C59.9626 23.2235 61.9463 25.132 63.3847 27.6516C64.8044 30.1524 65.4625 33.2361 65.3308 36.8274H32.8864C32.9993 33.2361 33.836 30.1524 35.359 27.661C36.9009 25.132 38.9222 23.2235 41.3759 21.9919C43.8203 20.7415 46.5279 20.1116 49.4142 20.1116Z" fill="#282625"/>
<path d="M137.091 17.4792V27.8302C135.822 24.7748 133.726 22.2082 130.839 20.1869C127.765 18.0339 123.967 16.9434 119.558 16.9434C115.666 16.9434 112.149 17.8271 109.094 19.5664C106.038 21.315 103.622 23.8346 101.902 27.0593C100.181 30.284 99.3164 34.101 99.3164 38.4069C99.3164 42.7127 100.191 46.5391 101.902 49.792C103.622 53.0449 106.038 55.5927 109.085 57.3696C112.131 59.1371 115.656 60.0302 119.548 60.0302C123.901 60.0302 127.69 58.9208 130.792 56.7491C133.698 54.709 135.813 52.1048 137.082 49.0023V59.4191H140.786V17.4792H137.091ZM120.028 56.7021C116.737 56.7021 113.776 55.9594 111.228 54.4927C108.68 53.0261 106.668 50.9014 105.249 48.175C103.829 45.4485 103.115 42.158 103.115 38.4069C103.115 34.6557 103.829 31.3746 105.249 28.6388C106.659 25.9123 108.661 23.797 111.19 22.3586C113.719 20.9202 116.69 20.1869 120.028 20.1869C123.215 20.1869 126.139 20.939 128.715 22.4338C131.291 23.9286 133.359 26.0816 134.844 28.8362C136.339 31.5908 137.091 34.8155 137.091 38.4069C137.091 42.0546 136.349 45.2981 134.882 48.0621C133.415 50.8168 131.357 52.9697 128.752 54.4551C126.148 55.95 123.215 56.7021 120.028 56.7021Z" fill="#282625"/>
<path d="M170.458 24.1272H162.627V59.2886H153.799V24.1272H148.807V16.9915H153.799V14.0018C153.799 9.14125 155.087 5.59691 157.672 3.36876C160.258 1.14062 164.31 0.03125 169.838 0.03125V7.32677C167.177 7.32677 165.306 7.82505 164.234 8.8216C163.163 9.81816 162.627 11.548 162.627 14.0018V16.9915H170.458V24.1272Z" fill="#FE9901"/>
<path d="M183.696 57.2476C180.472 55.4332 177.943 52.876 176.1 49.576C174.257 46.2761 173.336 42.4498 173.336 38.0969C173.336 33.8004 174.285 29.9834 176.175 26.6647C178.065 23.3366 180.65 20.7794 183.931 18.9837C187.203 17.1975 190.87 16.2949 194.912 16.2949C198.955 16.2949 202.612 17.1881 205.893 18.9837C209.165 20.7794 211.75 23.3366 213.649 26.6647C215.539 29.9928 216.489 33.8004 216.489 38.0969C216.489 42.3933 215.52 46.2103 213.574 49.5384C211.628 52.8666 208.977 55.4331 205.63 57.257C202.274 59.0715 198.579 59.9835 194.536 59.9835C190.531 59.974 186.921 59.0715 183.696 57.2476ZM200.854 50.77C202.819 49.6983 204.427 48.0812 205.649 45.9377C206.88 43.7848 207.491 41.1806 207.491 38.1063C207.491 35.032 206.899 32.4372 205.724 30.3125C204.549 28.1878 202.988 26.5895 201.042 25.5177C199.096 24.446 196.999 23.9101 194.743 23.9101C192.487 23.9101 190.409 24.446 188.491 25.5177C186.573 26.5895 185.05 28.1972 183.922 30.3125C182.794 32.4372 182.23 35.032 182.23 38.1063C182.23 42.666 183.395 46.1821 185.718 48.6641C188.049 51.1461 190.973 52.3871 194.508 52.3871C196.774 52.3777 198.889 51.8418 200.854 50.77Z" fill="#FE9901"/>
<path d="M265.347 24.127V47.5366C265.347 49.1254 265.714 50.263 266.457 50.9493C267.2 51.6356 268.469 51.9835 270.255 51.9835H275.633V59.279H268.723C264.783 59.279 261.766 58.3577 259.669 56.515C257.572 54.6723 256.52 51.6826 256.52 47.5366V24.127H251.527V16.9913H256.52V6.48047H265.347V17.0007H275.633V24.1364H265.347V24.127Z" fill="#FE9901"/>
<path d="M76.1602 59.9746H79.8267V20.2441H96.8997V17.0664H76.1602V59.9746Z" fill="#282625"/>
</svg>
